<svg xmlns="http://www.w3.org/2000/svg" version="1.0" width="300.000000pt" height="225.000000pt" viewBox="0 0 300.000000 225.000000" preserveAspectRatio="xMidYMid meet">
<g transform="translate(0.000000,225.000000) scale(0.100000,-0.100000)" fill="#000000" stroke="none">
<path d="M1308 1697 c2 -21 -8 -55 -31 -101 l-33 -70 -27 47 c-16 26 -31 47 -36 47 -22 0 -301 -206 -389 -288 l-43 -40 26 -58 c14 -33 29 -62 33 -66 10 -10 267 94 263 106 -5 15 22 25 40 15 33 -17 31 -44 -8 -120 -21 -41 -42 -78 -46 -84 -17 -22 -77 -128 -77 -136 0 -5 -4 -9 -8 -9 -5 0 -17 -15 -27 -34 -10 -18 -27 -39 -38 -46 -18 -11 -24 -9 -44 16 -13 16 -23 35 -23 42 0 7 23 58 51 115 46 91 48 99 24 77 -40 -36 -145 -169 -145 -184 0 -25 101 -106 132 -106 20 0 118 145 208 310 l63 114 -19 35 c-32 57 -39 58 -156 11 -68 -27 -105 -47 -102 -54 6 -16 -43 -38 -65 -31 -10 3 -25 21 -34 39 l-16 35 57 55 c31 30 84 74 117 97 33 24 62 46 65 49 12 14 138 100 148 100 6 0 20 -12 32 -27 19 -25 20 -28 5 -31 -35 -8 -256 -169 -307 -226 -21 -22 -25 -44 -5 -29 6 6 46 37 87 70 102 81 240 177 246 170 3 -3 -1 -15 -8 -27 -12 -19 -10 -24 15 -46 15 -13 31 -24 35 -24 4 0 34 52 67 115 59 113 60 115 43 142 -9 15 -29 36 -45 45 l-29 17 4 -32z m52 -61 c-1 -24 -87 -171 -100 -171 -7 0 -17 12 -21 28 -5 19 -4 27 5 27 11 0 56 51 56 63 0 3 7 21 15 40 10 25 20 35 30 31 8 -4 15 -11 15 -18z"/>
<path d="M1395 1517 c-1 -23 -12 -67 -27 -99 -26 -55 -27 -56 -82 -68 -31 -6 -70 -9 -86 -5 -18 4 -30 3 -30 -4 0 -18 78 -93 89 -86 20 12 11 -6 -52 -114 -75 -126 -107 -181 -107 -186 0 -2 21 -17 46 -34 40 -26 49 -29 65 -17 24 16 189 175 189 181 0 15 112 175 129 184 31 17 33 -2 5 -40 -14 -19 -37 -56 -51 -84 -14 -27 -33 -60 -43 -75 -10 -14 -21 -41 -25 -60 -6 -33 -4 -32 26 20 121 209 143 236 184 226 31 -8 45 16 -114 -182 -57 -71 -110 -130 -117 -132 -7 -2 -21 7 -33 19 -18 20 -19 24 -5 50 21 41 11 36 -22 -12 l-28 -41 24 -18 c13 -10 36 -25 51 -34 l27 -16 79 107 c44 60 92 127 108 151 15 23 34 42 41 42 8 0 14 5 14 11 0 21 26 37 43 27 25 -13 21 -29 -22 -111 -37 -70 -67 -162 -41 -127 28 39 119 231 115 243 -9 22 -66 51 -75 38 -5 -9 -16 -7 -41 7 -19 11 -49 23 -67 27 -29 6 -37 3 -67 -29 -18 -19 -57 -74 -86 -121 -38 -63 -69 -99 -116 -136 -34 -28 -63 -55 -63 -60 0 -5 -12 -15 -26 -21 -23 -11 -29 -10 -45 10 -18 23 -18 24 3 68 12 24 26 44 30 44 4 0 8 8 8 17 0 9 6 24 14 32 22 25 66 112 66 131 0 9 -9 26 -20 38 -11 12 -20 25 -20 30 0 11 34 22 68 22 34 0 75 48 97 113 15 44 22 53 37 49 25 -6 38 -33 32 -63 l-6 -24 21 24 c12 13 21 29 21 35 0 20 -89 96 -112 96 -2 0 -3 -19 -3 -43z"/>
<path d="M1473 1386 c4 -9 -12 -21 -44 -37 -50 -23 -97 -62 -54 -45 91 37 162 57 187 52 34 -7 37 7 6 28 -29 20 -102 22 -95 2z"/>
<path d="M1378 1293 c-10 -2 -18 -11 -18 -20 0 -15 -38 -93 -51 -103 -15 -12 -81 -160 -77 -171 2 -7 31 34 63 91 32 58 71 126 86 153 37 61 37 61 -3 50z"/>
<path d="M1872 1272 c-19 -56 -124 -213 -160 -240 -20 -15 -53 -44 -74 -66 -37 -38 -38 -38 -63 -22 -14 9 -25 20 -25 25 0 5 21 52 46 105 78 164 37 122 -50 -51 l-36 -72 37 -26 c21 -14 45 -25 54 -25 10 0 42 28 73 62 51 56 76 71 41 24 -23 -31 -18 -44 27 -72 l42 -27 103 109 c57 60 110 121 118 136 14 26 37 51 83 92 17 15 25 16 36 7 13 -11 8 -24 -31 -89 -61 -102 -85 -151 -80 -165 4 -12 103 144 140 219 l22 46 -29 25 -29 25 -146 -150 c-80 -82 -158 -165 -173 -183 l-27 -34 -25 26 -24 26 54 81 c30 45 54 84 54 86 0 4 54 89 67 105 2 3 8 0 15 -7 12 -12 -23 -89 -69 -149 -13 -18 -21 -33 -18 -33 3 0 -1 -13 -10 -30 -8 -16 -15 -33 -15 -37 0 -9 37 44 107 156 l53 85 -32 33 c-17 18 -35 33 -39 33 -4 0 -11 -13 -17 -28z"/>
<path d="M1068 1243 c-8 -10 -43 -65 -78 -123 -35 -58 -81 -131 -102 -162 -21 -32 -35 -58 -31 -58 10 1 63 47 63 55 0 4 13 25 28 48 73 108 153 257 138 257 -2 0 -10 -8 -18 -17z"/>
<path d="M1977 1058 c-18 -29 -46 -75 -63 -101 -20 -34 -46 -57 -84 -79 -80 -45 -129 -86 -136 -113 -7 -29 24 -89 72 -138 l38 -39 19 24 c18 21 107 191 107 203 0 3 -11 5 -25 5 -16 0 -23 -4 -19 -13 8 -23 -24 -87 -41 -81 -18 7 -18 9 -4 36 23 43 0 25 -35 -28 -21 -31 -40 -53 -43 -50 -12 11 8 56 39 87 30 30 31 31 8 24 -33 -10 -48 -23 -55 -46 -8 -26 -36 -25 -32 1 4 26 42 66 78 80 16 7 29 16 29 21 0 5 5 9 12 9 27 0 79 55 117 125 68 124 80 171 18 73z m-127 -344 c0 -23 -35 -74 -51 -74 -26 0 -24 28 3 57 20 21 48 31 48 17z"/>
<path d="M2068 974 c-27 -8 -48 -17 -48 -20 0 -3 29 -4 64 -1 104 8 101 -12 -7 -40 -94 -24 -204 -69 -195 -79 3 -2 45 9 94 26 107 37 193 52 234 40 38 -11 38 -4 0 48 -34 48 -58 52 -142 26z"/>
<path d="M1540 871 c-19 -5 -89 -23 -155 -41 -94 -27 -140 -34 -212 -34 l-91 -1 20 -37 c33 -58 83 -101 115 -100 15 0 84 28 153 60 147 71 225 95 286 90 24 -2 44 0 44 4 0 10 -60 58 -73 58 -7 0 -21 2 -32 4 -11 2 -36 1 -55 -3z m50 -33 c-14 -6 -27 -12 -30 -13 -53 -14 -59 -17 -204 -85 -138 -66 -145 -67 -180 -30 -36 38 -29 60 19 60 42 0 235 38 250 50 20 14 75 20 75 7 0 -6 5 -4 11 6 7 11 22 17 47 16 36 0 36 -1 12 -11z"/>
</g>
</svg>